<?xml version="1.0" encoding="utf-8"?>
<!-- Generator: Adobe Illustrator 23.1.0, SVG Export Plug-In . SVG Version: 6.00 Build 0)  -->
<svg version="1.1" id="Capa_1" xmlns="http://www.w3.org/2000/svg" xmlns:xlink="http://www.w3.org/1999/xlink" x="0px" y="0px"
	 viewBox="0 0 19.7 21.7" style="enable-background:new 0 0 19.7 21.7;" xml:space="preserve">
<style type="text/css">
	.st0{fill:#FFFFFF;}
</style>
<g>
	<path class="st0" d="M7.9,15v-1.5c0-0.9,0.2-1.6,0.7-2.2c0.5-0.6,1.1-1.2,2-1.9c0.8-0.6,1.4-1.2,1.9-1.7c0.4-0.5,0.6-1.1,0.6-1.9
		c0-0.9-0.3-1.6-0.9-2.2c-0.6-0.5-1.4-0.8-2.3-0.8c-1,0-1.8,0.3-2.4,0.8C6.9,4.2,6.6,4.9,6.6,5.8v0.8c0,0.2-0.1,0.3-0.3,0.3L4,6.8
		c-0.2,0-0.3-0.1-0.3-0.3V5.8c0-1.1,0.3-2.1,0.8-2.9C5,2,5.7,1.4,6.7,0.9c1-0.5,2-0.7,3.3-0.7c1.8,0,3.3,0.5,4.4,1.5
		c1.1,1,1.7,2.3,1.7,4c0,0.9-0.2,1.6-0.5,2.3c-0.3,0.6-0.7,1.2-1.1,1.6c-0.4,0.4-1,0.9-1.6,1.3c-0.7,0.5-1.2,1-1.6,1.4
		c-0.3,0.4-0.5,0.8-0.5,1.4V15c0,0.2-0.1,0.3-0.3,0.3H8.2C8,15.3,7.9,15.2,7.9,15z M7.9,21c-0.4-0.4-0.5-0.8-0.5-1.4
		c0-0.6,0.2-1,0.5-1.4c0.4-0.4,0.8-0.5,1.4-0.5s1,0.2,1.4,0.5c0.4,0.4,0.5,0.8,0.5,1.4c0,0.6-0.2,1-0.5,1.4
		c-0.4,0.4-0.8,0.5-1.4,0.5S8.2,21.3,7.9,21z"/>
</g>
</svg>
