<?xml version="1.0" encoding="utf-8"?>
<!-- Generator: Adobe Illustrator 19.2.1, SVG Export Plug-In . SVG Version: 6.00 Build 0)  -->
<svg version="1.1" id="Capa_1" xmlns="http://www.w3.org/2000/svg" xmlns:xlink="http://www.w3.org/1999/xlink" x="0px" y="0px"
	 viewBox="0 0 21 9" style="enable-background:new 0 0 21 9;" xml:space="preserve">
<style type="text/css">
	.st0{fill:#FFFFFF;}
</style>
<g>
	<g>
		<path class="st0" d="M5.8,8.4L5.4,7.1c0,0,0,0,0,0H2.1c0,0,0,0,0,0L1.7,8.4c0,0.1-0.1,0.1-0.1,0.1H0.6c-0.1,0-0.1,0-0.1-0.1L3,0.6
			c0-0.1,0.1-0.1,0.1-0.1h1.1c0.1,0,0.1,0,0.1,0.1L7,8.4l0,0c0,0.1,0,0.1-0.1,0.1H5.9C5.9,8.5,5.8,8.5,5.8,8.4z M2.4,6.1
			C2.4,6.2,2.4,6.2,2.4,6.1l2.7,0c0,0,0,0,0,0c0,0,0,0,0,0L3.8,1.9c0,0,0,0,0,0c0,0,0,0,0,0L2.4,6.1C2.4,6.1,2.4,6.1,2.4,6.1z"/>
		<path class="st0" d="M12.7,8.4L11.1,5c0,0,0,0,0,0H9.4c0,0,0,0,0,0v3.4c0,0.1,0,0.1-0.1,0.1H8.4c-0.1,0-0.1,0-0.1-0.1V0.6
			c0-0.1,0-0.1,0.1-0.1h3.1c0.5,0,0.9,0.1,1.2,0.3C13,1,13.3,1.2,13.5,1.6c0.2,0.3,0.3,0.7,0.3,1.2c0,0.5-0.1,1-0.4,1.4
			c-0.3,0.4-0.7,0.6-1.2,0.7c0,0,0,0,0,0.1l1.7,3.4c0,0,0,0,0,0.1c0,0.1,0,0.1-0.1,0.1h-0.9C12.8,8.5,12.7,8.5,12.7,8.4z M9.4,1.5V4
			c0,0,0,0,0,0h1.9c0.4,0,0.7-0.1,1-0.4c0.2-0.2,0.4-0.6,0.4-1c0-0.4-0.1-0.7-0.4-1c-0.2-0.2-0.6-0.4-1-0.4L9.4,1.5
			C9.4,1.4,9.4,1.5,9.4,1.5z"/>
		<path class="st0" d="M15.3,8.4V0.6c0-0.1,0-0.1,0.1-0.1h0.9c0.1,0,0.1,0,0.1,0.1v6.9c0,0,0,0,0,0h3.9c0.1,0,0.1,0,0.1,0.1v0.7
			c0,0.1,0,0.1-0.1,0.1h-5C15.3,8.5,15.3,8.5,15.3,8.4z"/>
	</g>
</g>
</svg>
