<?xml version="1.0" encoding="utf-8"?>
<!-- Generator: Adobe Illustrator 19.2.1, SVG Export Plug-In . SVG Version: 6.00 Build 0)  -->
<svg version="1.1" id="Capa_1" xmlns="http://www.w3.org/2000/svg" xmlns:xlink="http://www.w3.org/1999/xlink" x="0px" y="0px"
	 viewBox="0 0 73 27" style="enable-background:new 0 0 73 27;" xml:space="preserve">
<style type="text/css">
	.st0{fill:#00A4C0;}
	.st1{fill:#1C3F8E;}
</style>
<g>
	<g>
		<g>
			<path id="XMLID_19_" class="st0" d="M62.8,21.3C62.8,21.3,62.8,21.2,62.8,21.3c-1.4,0.5-4.4,1-6.3,1.3c-1.6,0.2-3,0.3-3.8,0.3
				l-0.4,0c0,0-0.1,0-0.1,0.1c0,0,0,0.1,0,0.1c0.1,0.2,0.6,0.6,1.5,0.7c1.1,0.1,2.6-0.1,4.6-0.7C60,22.7,61.9,21.9,62.8,21.3z"/>
			<path id="XMLID_18_" class="st0" d="M63,22.1c-0.9,0.6-2.1,1.2-3.5,1.7c-1.4,0.5-3,0.9-4.7,1.2c0,0-0.1,0-0.1,0.1c0,0,0,0,0,0.1
				c0.3,0.2,0.6,0.4,1.1,0.4c0.5,0.1,1.2,0,2-0.2c0.7-0.2,1.3-0.5,2-0.8c0.7-0.3,1.4-0.7,1.9-1.1C62.3,23,62.7,22.6,63,22.1
				C63,22.2,63,22.1,63,22.1z"/>
			<path id="XMLID_17_" class="st0" d="M55.9,6.6c0.4,0.4,0.8,0.6,1.4,0.8l0,0c0.2,0,9.4,2.5,11.8,3.1c1.1,0.3,1.9,0.5,2.3,0.6
				c0,0,0.1,0,0.1,0c0,0,0,0,0,0c-1.5-0.6-11-4.3-14.6-5.6l-1.5-0.6c-0.1,0-0.1,0-0.1,0c0,0,0,0,0,0.1c0,0.1,0.1,0.8,0.4,1.3
				C55.7,6.4,55.7,6.5,55.9,6.6z"/>
			<path id="XMLID_16_" class="st0" d="M56.2,3c0.2,0.2,0.4,0.4,0.7,0.6c0.1,0.1,0.2,0.1,0.4,0.2l0.8,0.4c0.5,0.2,7.6,3.6,8.6,4.1
				c1.2,0.6,2.5,1.2,3,1.5c0.1,0,0.1,0,0.1-0.1c-1.3-0.8-6.4-4-10.1-6.3l-2.6-1.6l-0.5-0.3L55.8,1c0,0-0.1,0-0.1,0c0,0,0,0,0,0.1
				c0,0.1,0,0.8,0.2,1.3C56,2.6,56.1,2.8,56.2,3z"/>
			<path id="XMLID_15_" class="st0" d="M62.7,23.7C62.6,23.7,62.6,23.7,62.7,23.7c-1.2,1.2-3,1.8-3.5,2c0,0-0.1,0-0.1,0.1
				c0,0,0,0.1,0,0.1c0.1,0,0.8,0.4,2.1-0.3C62,25.2,62.4,24.6,62.7,23.7C62.7,23.7,62.7,23.7,62.7,23.7z"/>
			<path id="XMLID_14_" class="st0" d="M71.1,14c-0.6,0.2-2.9,0.8-4.8,1.3c-1.7,0.4-3.7,1-3.7,1c-0.2,0.1-0.1,0.1-0.1,0.2
				c0.1,0.1,0.2,0.3,0.3,0.5c0.3,0.5,0.7,0.5,1.1,0.3C64,17.1,70.9,14.3,71.1,14C71.2,14,71.2,14,71.1,14C71.2,14,71.2,14,71.1,14z"
				/>
			<path id="XMLID_13_" class="st0" d="M68.1,18.7L68.1,18.7c-1,0.8-2.3,2-3.8,3.2c-0.1,0.1-0.2,0.3-0.2,0.6
				c-0.1,0.4-0.3,0.9-0.3,0.9c0,0.1,0,0.2,0.1,0.1C65,22.3,67.5,19.6,68.1,18.7C68.2,18.8,68.1,18.7,68.1,18.7z"/>
			<path id="XMLID_12_" class="st0" d="M72.5,12.1c-1.2-0.2-16.1-2.9-16.1-2.9c0,0-0.1,0-0.1,0c0,0,0,0.1,0,0.1
				c0.2,0.8,0.8,1.5,1.8,1.8c0.1,0,0.2,0,0.3,0.1C58.4,11.3,71.1,12.1,72.5,12.1C72.5,12.2,72.5,12.2,72.5,12.1
				C72.5,12.2,72.5,12.1,72.5,12.1z"/>
			<path id="XMLID_11_" class="st0" d="M71.9,13c-0.4,0-1.4,0-2.5,0c-1.3,0-2.9,0-4.4,0c-2,0-5.2,0-5.2,0c0,0,0,0-0.1,0
				c0,0,0,0,0,0.1c0,0.1,0.2,0.5,0.4,0.7c0.4,0.4,0.8,0.6,1.3,0.7c0.1,0,0.1,0,0.2,0c0.1,0,0.1,0,0.2,0C61.8,14.5,71.3,13.2,71.9,13
				C71.9,13.1,71.9,13.1,71.9,13C71.9,13,71.9,13,71.9,13z"/>
			<path id="XMLID_10_" class="st0" d="M70.4,15.3c-0.7,0.4-2.4,1.5-3.8,2.3c-0.8,0.5-1.9,1.1-2.4,1.4c-0.1,0-0.1,0-0.1,0.2
				c0,0,0,0.2,0,0.3c0.1,0.8,0.4,0.7,0.9,0.3l0.1,0C66.7,18.5,69.7,16,70.4,15.3C70.4,15.3,70.4,15.3,70.4,15.3z"/>
		</g>
	</g>
	<g>
		<path class="st1" d="M42.6,6.7c-3.3,0-6.4,2.4-6.5,7.2c-0.1,4.3,2.1,7.3,5.9,7.3c3.1,0,4.2-2.2,4.2-2.2c0.2,1.5,1,1.9,2.5,1.9V6.7
			H42.6z M46.1,15c0,2-1.1,3.8-3.6,3.8c-2.2,0-3.8-1.5-3.7-5c0.1-3.4,1.7-4.9,3.9-4.9c0.2,0,0.3,0,0.5,0v0h2.9V15z"/>
		<path id="XMLID_6_" class="st1" d="M21.6,6.7l0,9.8c0,1.4-1.2,2.2-2.8,2.2c-1.7,0-2.7-0.7-2.7-2.2l0-7.4c0-2.1-1.3-2.5-2.5-2.5
			v10.4c0,2.6,2.4,3.9,5.1,3.9c2.7,0,5.3-1.3,5.3-3.9l0-7.6C24.1,7.4,23.3,6.7,21.6,6.7z"/>
		<path id="XMLID_4_" class="st1" d="M7.8,13l-3-0.8c-0.8-0.2-1.6-0.6-1.6-1.6c0-1.1,0.6-1.6,2-1.6h2.7c1.2,0,2.6-0.4,2.6-2.3
			l-5.1,0c-3.1,0-4.9,1.6-4.9,3.8c0,2.1,1.3,3.3,3.7,3.9l2.6,0.7c1.1,0.3,1.5,1,1.5,1.7c0,1.1-0.7,1.7-2.3,1.7l-5.1,0v2.3h5.2
			c3.1,0,4.9-1.7,4.9-3.9C11,14.8,10.1,13.7,7.8,13z"/>
		<path id="XMLID_1_" class="st1" d="M32.7,6.7c-3.1,0-5.2,1.8-5.2,5.4v8.8h2.5V12c0-1.9,1-3,2.9-3h0.7c2.2,0,2.5-1.1,2.5-2.3H32.7z
			"/>
	</g>
</g>
</svg>
